<svg xmlns="http://www.w3.org/2000/svg" width="23" height="24" viewBox="0 0 23 24"><defs><style>.a{fill:none;}.b{fill:#636882;}</style></defs><path class="a" d="M0,0H22.9V24H0Z"/><path class="a" d="M0,0H22.9V24H0Z"/><path class="b" d="M17.707,5.71a.92.92,0,0,0-1.345,0L11.7,10.59,7.032,5.7a.92.92,0,0,0-1.345,0,1.03,1.03,0,0,0,0,1.41L10.352,12,5.687,16.89a1.03,1.03,0,0,0,0,1.41.92.92,0,0,0,1.345,0L11.7,13.41l4.665,4.89a.92.92,0,0,0,1.345,0,1.03,1.03,0,0,0,0-1.41L13.042,12l4.665-4.89A1.037,1.037,0,0,0,17.707,5.71Z" transform="translate(-0.249)"/></svg>