<?xml version="1.0" encoding="UTF-8"?>
<svg xmlns="http://www.w3.org/2000/svg" xmlns:xlink="http://www.w3.org/1999/xlink" width="24pt" height="24pt"
     viewBox="0 0 24 24" version="1.1">
    <g id="surface1">
        <path style=" stroke:none;fill-rule:nonzero;fill:rgb(92.156863%,93.72549%,94.901961%);fill-opacity:1;"
              d="M 24 5.339844 L 24 18.660156 C 24 18.949219 23.902344 19.21875 23.742188 19.429688 C 23.511719 19.738281 23.140625 19.941406 22.71875 19.941406 L 1.28125 19.941406 C 0.859375 19.941406 0.488281 19.738281 0.257812 19.429688 C 0.0976562 19.21875 0 18.949219 0 18.660156 L 0 5.339844 C 0 5.085938 0.0742188 4.851562 0.203125 4.648438 C 0.433594 4.292969 0.828125 4.058594 1.28125 4.058594 L 22.71875 4.058594 C 23.171875 4.058594 23.566406 4.292969 23.796875 4.648438 C 23.925781 4.851562 24 5.085938 24 5.339844 Z M 24 5.339844 "/>
        <path style=" stroke:none;fill-rule:nonzero;fill:rgb(83.137255%,83.529412%,85.882353%);fill-opacity:1;"
              d="M 23.742188 19.429688 C 23.511719 19.738281 23.140625 19.941406 22.71875 19.941406 L 1.28125 19.941406 C 0.859375 19.941406 0.488281 19.738281 0.257812 19.429688 L 12 11.574219 Z M 23.742188 19.429688 "/>
        <path style=" stroke:none;fill-rule:nonzero;fill:rgb(39.215686%,47.45098%,53.72549%);fill-opacity:1;"
              d="M 23.796875 4.648438 L 12.644531 14.75 C 12.277344 15.082031 11.722656 15.082031 11.355469 14.75 L 0.203125 4.648438 C 0.433594 4.292969 0.828125 4.058594 1.28125 4.058594 L 22.71875 4.058594 C 23.171875 4.058594 23.566406 4.292969 23.796875 4.648438 Z M 23.796875 4.648438 "/>
        <path style=" stroke:none;fill-rule:nonzero;fill:rgb(87.843137%,89.803922%,90.980392%);fill-opacity:1;"
              d="M 23.796875 4.648438 L 12.609375 13.871094 C 12.257812 14.164062 11.742188 14.164062 11.390625 13.871094 L 0.203125 4.648438 C 0.433594 4.292969 0.828125 4.058594 1.28125 4.058594 L 22.71875 4.058594 C 23.171875 4.058594 23.566406 4.292969 23.796875 4.648438 Z M 23.796875 4.648438 "/>
    </g>
</svg>
