<svg xmlns="http://www.w3.org/2000/svg" width="25.294" height="20" viewBox="0 0 25.294 20"><defs><style>.a{fill:#fff;}.b{fill:#1e88e5;}.c{fill:#4caf50;}.d{fill:#fbc02d;}.e{fill:#1565c0;}.f{fill:#e53935;}.g{fill:#2e7d32;}</style></defs><g transform="translate(-3 -7)"><rect class="a" width="10" height="10" transform="translate(8 22) rotate(-90)"/><path class="b" d="M3,16.588v8.235l2.941.588,2.941-.588V16.588L5.941,16Z" transform="translate(0 -3.706)"/><path class="c" d="M26.706,23.588v8.235a1.765,1.765,0,0,1-1.765,1.765H12.588L12,30.647l.588-2.941h8.235V23.588L23.765,23Z" transform="translate(-3.706 -6.588)"/><path class="d" d="M26.706,8.765V17H20.824V12.882H12.588L12,9.941,12.588,7H24.941A1.765,1.765,0,0,1,26.706,8.765Z" transform="translate(-3.706)"/><path class="e" d="M8.882,31v5.882H4.765A1.765,1.765,0,0,1,3,35.118V31Z" transform="translate(0 -9.882)"/><path class="f" d="M8.882,7v5.882H3Z"/><path class="g" d="M33.471,20.521l-.588,4.971L27,20.521l5.882-4.971Z" transform="translate(-9.882 -3.521)"/><path class="c" d="M42.294,9.7V26.038a.589.589,0,0,1-.959.459L37,22.838V12.9l4.335-3.659A.589.589,0,0,1,42.294,9.7Z" transform="translate(-14 -0.867)"/></g></svg>