<svg xmlns="http://www.w3.org/2000/svg" xmlns:xlink="http://www.w3.org/1999/xlink" width="37" height="26"
     viewBox="0 0 37 26">
    <defs>
        <style>.a{stroke:#f6f5fa;fill:url(#a);}.b{fill:#000852;}.c{stroke:none;}.d{fill:none;}.e{filter:url(#b);}
        </style>
        <linearGradient id="a" x1="0.5" x2="0.5" y2="1" gradientUnits="objectBoundingBox">
            <stop offset="0" stop-color="#fafafa"/>
            <stop offset="1" stop-color="#f4f4f4"/>
        </linearGradient>
        <filter id="b" x="0" y="0" width="37" height="26" filterUnits="userSpaceOnUse">
            <feOffset dx="1" dy="2" input="SourceAlpha"/>
            <feGaussianBlur stdDeviation="1" result="c"/>
            <feFlood flood-opacity="0.149"/>
            <feComposite operator="in" in2="c"/>
            <feComposite in="SourceGraphic"/>
        </filter>
    </defs>
    <g transform="translate(-86.841 -97.055)">
        <g transform="translate(88.841 98.055)">
            <g class="e" transform="matrix(1, 0, 0, 1, -2, -1)">
                <g class="a" transform="translate(2 1)">
                    <rect class="c" width="31" height="20" rx="5"/>
                    <rect class="d" x="0.5" y="0.5" width="30" height="19" rx="4.5"/>
                </g>
            </g>
        </g>
        <path class="b"
              d="M5.661-4.018a2.172,2.172,0,0,0-.387-.943,2.153,2.153,0,0,0-.822-.679,2.745,2.745,0,0,0-1.219-.252,2.626,2.626,0,0,0-1.407.368A2.438,2.438,0,0,0,.905-4.488,3.557,3.557,0,0,0,.58-2.917a3.642,3.642,0,0,0,.328,1.6,2.461,2.461,0,0,0,.924,1.05A2.611,2.611,0,0,0,3.239.1,2.817,2.817,0,0,0,4.45-.14,2.132,2.132,0,0,0,5.272-.8a2.091,2.091,0,0,0,.389-.948H4.727a1.26,1.26,0,0,1-.518.752,1.7,1.7,0,0,1-.975.263A1.518,1.518,0,0,1,2.336-1a1.732,1.732,0,0,1-.591-.76,2.937,2.937,0,0,1-.209-1.157,2.86,2.86,0,0,1,.207-1.136A1.686,1.686,0,0,1,2.331-4.8a1.549,1.549,0,0,1,.9-.263,1.545,1.545,0,0,1,1,.306,1.387,1.387,0,0,1,.491.736ZM7.584-7.289v1.5H6.649v.773h.935V-1.5A1.555,1.555,0,0,0,7.973-.317a1.86,1.86,0,0,0,1.281.36q.091,0,.183-.008l.18-.019q.089-.011.18-.027V-.79l-.15.011-.129.008q-.064,0-.15,0A.833.833,0,0,1,8.712-1a1.1,1.1,0,0,1-.2-.741V-5.017H9.8V-5.79H8.508v-1.5ZM11.258,0h.924V-3.588a1.35,1.35,0,0,1,.2-.725,1.385,1.385,0,0,1,.54-.5A1.646,1.646,0,0,1,13.7-5q.14,0,.338.019a1.739,1.739,0,0,1,.252.035v-.924q-.086-.011-.218-.019t-.244-.008a1.967,1.967,0,0,0-1.026.269,1.217,1.217,0,0,0-.58.693h-.086V-5.79h-.881Zm4.308,0h.924V-8.089h-.924Z"
              transform="translate(95.721 111.5)"/>
    </g>
</svg>
