<?xml version="1.0" encoding="UTF-8"?>
<svg xmlns="http://www.w3.org/2000/svg" xmlns:xlink="http://www.w3.org/1999/xlink" width="20px" height="28px"
     viewBox="0 0 20 27" version="1.1">
    <g id="surface1">
        <path style=" stroke:none;fill-rule:nonzero;fill:rgb(25.882353%,52.156863%,95.686275%);fill-opacity:1;"
              d="M 12.5 0 L 1.875 0 C 0.875 0 0 0.859375 0 1.84375 L 0 25.160156 C 0 26.140625 0.875 27 1.875 27 L 18.125 27 C 19.125 27 20 26.140625 20 25.160156 L 20 7.363281 L 15.625 4.296875 Z M 12.5 0 "/>
        <path style=" stroke:none;fill-rule:nonzero;fill:rgb(94.509804%,94.509804%,94.509804%);fill-opacity:1;"
              d="M 5 19.636719 L 15 19.636719 L 15 18.410156 L 5 18.410156 Z M 5 22.089844 L 12.5 22.089844 L 12.5 20.863281 L 5 20.863281 Z M 5 13.5 L 5 14.726562 L 15 14.726562 L 15 13.5 Z M 5 17.179688 L 15 17.179688 L 15 15.953125 L 5 15.953125 Z M 5 17.179688 "/>
        <path style=" stroke:none;fill-rule:nonzero;fill:rgb(63.137255%,76.078431%,98.039216%);fill-opacity:1;"
              d="M 12.5 0 L 12.5 5.523438 C 12.5 6.503906 13.375 7.363281 14.375 7.363281 L 20 7.363281 Z M 12.5 0 "/>
    </g>
</svg>
