<svg xmlns="http://www.w3.org/2000/svg" width="25.426" height="26" viewBox="0 0 25.426 26"><defs><style>.a{fill:none;}.b{fill:#c9c8d6;}</style></defs><rect class="a" width="25.426" height="26"/><g transform="translate(2 2)"><path class="b" d="M12.713,2A10.863,10.863,0,0,0,2,13,10.863,10.863,0,0,0,12.713,24,10.863,10.863,0,0,0,23.426,13,10.863,10.863,0,0,0,12.713,2ZM11.641,21.723A8.71,8.71,0,0,1,4.143,13a9.158,9.158,0,0,1,.225-1.969L9.5,16.3v1.1a2.178,2.178,0,0,0,2.143,2.2Zm7.392-2.794A2.132,2.132,0,0,0,17,17.4H15.927V14.1A1.089,1.089,0,0,0,14.855,13H8.428V10.8H10.57a1.089,1.089,0,0,0,1.071-1.1V7.5h2.143a2.178,2.178,0,0,0,2.143-2.2V4.849a8.9,8.9,0,0,1,3.107,14.08Z" transform="translate(-2 -2)"/></g></svg>