<svg id="google-docs-icon-2" xmlns="http://www.w3.org/2000/svg" width="18.255" height="25.1" viewBox="0 0 18.255 25.1">
  <path id="Path_487" data-name="Path 487"
        d="M11.409,0h-9.7A1.755,1.755,0,0,0,0,1.712V23.389A1.755,1.755,0,0,0,1.712,25.1H16.543a1.755,1.755,0,0,0,1.712-1.712V6.845L14.262,3.993Z"
        fill="#fff"/>
  <path id="Path_488" data-name="Path 488"
        d="M454.5,1255.7h9.127v-1.141H454.5v1.141Zm0,2.282h6.845v-1.141H454.5Zm0-7.987v1.141h9.127V1250Zm0,3.423h9.127v-1.141H454.5v1.141Z"
        transform="translate(-449.937 -1237.45)" fill="#000852" opacity="0.7"/>
  <path id="Path_489" data-name="Path 489" d="M1136.4,0V5.134a1.754,1.754,0,0,0,1.711,1.711h5.134Z"
        transform="translate(-1124.991)" fill="#000852" opacity="0.7"/>
</svg>
