<svg width="26" height="26" viewBox="0 0 26 26" fill="none" xmlns="http://www.w3.org/2000/svg">
    <circle cx="13" cy="13" r="13" fill="#F6F5FA"/>
    <path d="M12.9274 18.3644C10.0682 18.3254 7.7619 15.9967 7.7619 13.1279C7.7619 11.8549 8.21605 10.6882 8.97107 9.78045L7.58856 8.6875C6.59596 9.89588 6 11.4422 6 13.1279C6 16.9696 9.09482 20.0871 12.9274 20.1259V22.124L15.6773 19.3743L12.9274 16.6242V18.3644Z"
          fill="#C9C8D6"/>
    <path d="M12.9998 6.12812C12.9756 6.12812 12.9514 6.12871 12.9272 6.12911V4.27539L10.1772 7.02553L12.9272 9.77546V7.89081C12.9514 7.89041 12.9756 7.88981 12.9998 7.88981C15.8929 7.88981 18.2381 10.2352 18.2381 13.1281C18.2381 14.44 17.7557 15.6391 16.9591 16.5581L18.2787 17.725C19.3504 16.4952 19.9997 14.8874 19.9997 13.1281C19.9997 9.2624 16.8657 6.12812 12.9998 6.12812Z"
          fill="#C9C8D6"/>
</svg>
