<svg xmlns="http://www.w3.org/2000/svg" width="20" height="20" viewBox="0 0 20 20">
    <defs>
        <style>.a{fill:none;}.b{fill:#5a5d8d;}</style>
    </defs>
    <path class="a" d="M0,0H20V20H0Z"/>
    <path class="b"
          d="M14.5,6.667h-.75V5.048A3.909,3.909,0,0,0,10,1,3.909,3.909,0,0,0,6.25,5.048V6.667H5.5A1.568,1.568,0,0,0,4,8.286v8.1A1.568,1.568,0,0,0,5.5,18h9A1.568,1.568,0,0,0,16,16.381v-8.1A1.568,1.568,0,0,0,14.5,6.667ZM10,13.952a1.624,1.624,0,0,1,0-3.238,1.624,1.624,0,0,1,0,3.238Zm2.325-7.286H7.675V5.048A2.425,2.425,0,0,1,10,2.538a2.425,2.425,0,0,1,2.325,2.51Z"
          transform="translate(0 0)"/>
</svg>
