<svg width="18" height="18" viewBox="0 0 18 18" fill="none" xmlns="http://www.w3.org/2000/svg">
    <path d="M16.9972 2.2235L13.0478 6.17292L14.4159 7.54101C14.958 8.08309 14.5708 9.01236 13.805 9.01236H9.8642C9.39096 9.01236 9.00376 8.62517 9.00376 8.15193V4.19391C9.00376 3.42812 9.93303 3.04092 10.4751 3.58299L11.8432 4.95109L15.7926 1.00168C16.1282 0.666107 16.6703 0.666107 17.0058 1.00168C17.3328 1.34585 17.3328 1.88793 16.9972 2.2235ZM2.2235 16.9972L6.17292 13.0478L7.54101 14.4159C8.08309 14.958 9.01236 14.5708 9.01236 13.805V9.8642C9.01236 9.39096 8.62517 9.00376 8.15193 9.00376H4.19391C3.42812 9.00376 3.04092 9.93303 3.58299 10.4751L4.95109 11.8432L1.00168 15.7926C0.666107 16.1282 0.666107 16.6703 1.00168 17.0058C1.34585 17.3328 1.88793 17.3328 2.2235 16.9972Z" fill="#5A5D8D"/>
</svg>
