<svg xmlns="http://www.w3.org/2000/svg" width="20" height="20.849" viewBox="0 0 20 20.849">
    <defs>
        <style>.a{fill:#000852;fill-rule:evenodd;}</style>
    </defs>
    <path class="a"
          d="M15.449,5.655c.648.527.892.487,2.109.405l11.48-.689c.243,0,.041-.243-.04-.283L27.091,3.71a2.291,2.291,0,0,0-1.785-.527l-11.116.811c-.405.04-.486.243-.325.405Zm.689,2.675V20.409c0,.649.324.892,1.055.852l12.616-.73c.73-.04.812-.487.812-1.014v-12c0-.526-.2-.81-.65-.77l-13.184.77c-.487.041-.649.284-.649.811Zm12.455.648c.081.365,0,.73-.366.771l-.608.121v8.917a3.168,3.168,0,0,1-1.42.446c-.649,0-.812-.2-1.3-.81l-3.976-6.242v6.039l1.258.284s0,.729-1.015.729l-2.8.162a.522.522,0,0,1,.284-.648l.73-.2V10.56l-1.014-.081a.758.758,0,0,1,.69-.933l3-.2L26.2,15.667V10.073l-1.055-.121a.686.686,0,0,1,.649-.811ZM13.257,2.9,24.82,2.047a3.036,3.036,0,0,1,2.678.608L31.188,5.25C31.8,5.7,32,5.817,32,6.3V20.531c0,.892-.325,1.419-1.46,1.5l-13.427.811a1.683,1.683,0,0,1-1.7-.649L12.69,18.666a2.724,2.724,0,0,1-.69-1.7V4.317A1.271,1.271,0,0,1,13.257,2.9Z"
          transform="translate(-12 -2)"/>
</svg>
