<svg xmlns="http://www.w3.org/2000/svg" width="28" height="28" viewBox="0 0 28 28">
    <defs>
        <style>.a{fill:#f7f7f7;}.b{fill:none;}.c{fill:#b9b9b9;}</style>
    </defs>
    <circle class="a" cx="14" cy="14" r="14"/>
    <g transform="translate(4.6 4.6)">
        <path class="b" d="M0,0H18.806V18.806H0Z"/>
        <path class="c"
              d="M10.177,3a.8.8,0,0,0-.8.8v6.38a.8.8,0,1,0,1.595,0V3.8A.8.8,0,0,0,10.177,3Zm4.1,2.281a.79.79,0,0,0-.008,1.109,5.474,5.474,0,0,1,1.491,3.645,5.65,5.65,0,0,1-5.511,5.718A5.576,5.576,0,0,1,6.086,6.381.79.79,0,1,0,4.937,5.3,7.113,7.113,0,0,0,3,9.97a7.253,7.253,0,0,0,6.946,7.377,7.181,7.181,0,0,0,7.409-7.178A7.09,7.09,0,0,0,15.424,5.3.8.8,0,0,0,14.276,5.281Z"
              transform="translate(-0.773 -0.774)"/>
    </g>
</svg>
