<svg width="23" height="23" viewBox="0 0 23 23" fill="none" xmlns="http://www.w3.org/2000/svg">
    <circle cx="11.5" cy="11.5" r="11.5" fill="#3D29FF"/>
    <path d="M11.3896 10.6254C11.992 10.6254 12.4739 10.7734 12.8554 11.0483C13.2369 11.3444 13.5181 11.7039 13.7189 12.1692C13.8996 12.6344 14 13.1631 14 13.7341C14 14.4955 13.8394 15.2356 13.5382 15.9335C13.2169 16.6314 12.8153 17.2447 12.3133 17.7946C11.8112 18.3444 11.249 18.7251 10.6667 19L9 17.71C9.44177 17.5196 9.86345 17.287 10.245 16.9909C10.6265 16.6949 10.9478 16.3988 11.2289 16.0604C11.51 15.7221 11.7309 15.3837 11.8715 15.0242L11.751 14.9396C11.6707 15.003 11.5703 15.0665 11.4297 15.0876C11.3092 15.1299 11.1285 15.1299 10.9277 15.1299C10.6466 15.1299 10.3454 15.0453 10.0442 14.8973C9.74297 14.7492 9.50201 14.5166 9.3012 14.2205C9.1004 13.9245 9 13.5227 9 13.0574C9 12.5076 9.12048 12.0634 9.34137 11.7039C9.56225 11.3444 9.86345 11.0695 10.2249 10.9003C10.5863 10.7311 10.9679 10.6254 11.3896 10.6254ZM11.4699 5C12.2329 5 12.8153 5.21148 13.2369 5.61329C13.6586 6.01511 13.8795 6.5861 13.8795 7.30514C13.8795 8.02417 13.6586 8.57402 13.2369 8.97583C12.8153 9.37764 12.2129 9.58912 11.4699 9.58912C10.7269 9.58912 10.1446 9.37764 9.70281 8.97583C9.26104 8.57402 9.06024 8.00302 9.06024 7.30514C9.06024 6.5861 9.28112 6.01511 9.70281 5.61329C10.1245 5.21148 10.7269 5 11.4699 5Z"
          fill="white"/>
</svg>
