<svg xmlns="http://www.w3.org/2000/svg" width="18.095" height="18.095" viewBox="0 0 18.095 18.095"><defs><style>.a{fill:#000852;}</style></defs><g transform="translate(-2.953 -2.953)"><g transform="translate(2.953 2.953)"><path class="a" d="M15.445,2.65a9.048,9.048,0,0,0-12.8,12.8,9.048,9.048,0,0,0,12.8-12.8Zm-6.4,14.031a7.634,7.634,0,1,1,7.634-7.634A7.642,7.642,0,0,1,9.047,16.681Z"/></g></g><g transform="translate(3.72 10.073)"><path class="a" d="M114.583,285.033a5.057,5.057,0,0,1-.884,1.5,3.825,3.825,0,0,1-3.024,1.408,4.069,4.069,0,0,1-3.122-1.424,5.442,5.442,0,0,1-.966-1.509l-1.324.494a6.771,6.771,0,0,0,1.2,1.918,5.505,5.505,0,0,0,4.21,1.934,5.252,5.252,0,0,0,4.138-1.95,6.4,6.4,0,0,0,1.114-1.933Z" transform="translate(-105.262 -285.006)"/></g><g transform="translate(4.806 5.235)"><circle class="a" cx="1.131" cy="1.131" r="1.131"/></g><g transform="translate(11.027 5.235)"><circle class="a" cx="1.131" cy="1.131" r="1.131"/></g></svg>