<svg width="72" height="19" viewBox="0 0 72 19" fill="none" xmlns="http://www.w3.org/2000/svg">
    <path d="M7.40463 12.6139C7.12901 12.6936 6.84557 12.7305 6.55822 12.7247C6.2005 12.746 5.84864 12.6334 5.56911 12.41C5.30522 12.1302 5.17425 11.7495 5.21335 11.3668V7.29526H8.24909V4.84573H5.21335V1.625L1.74756 2.57684V4.84573H-0.00585938V7.29721H1.7456V11.936C1.72606 12.5964 1.89221 13.2491 2.22452 13.8202C2.53533 14.2962 2.99274 14.6594 3.5303 14.8537C4.17342 15.0829 4.85367 15.1936 5.53784 15.1781C6.07344 15.1781 6.60904 15.1101 7.12706 14.9761C7.58642 14.8673 8.02233 14.675 8.41133 14.4088L8.04384 12.2818C7.85423 12.4294 7.63725 12.5421 7.40463 12.6139Z"
          fill="#1D1DFF"/>
    <path d="M14.262 12.7655C13.9805 12.7946 13.701 12.6897 13.5075 12.4819C13.3315 12.1963 13.2533 11.8622 13.2846 11.53V0.550781H9.81885V11.9749C9.81885 13.1093 10.0632 13.9252 10.5519 14.4264C11.0406 14.9256 11.8283 15.1762 12.9171 15.1762C13.3081 15.1742 13.699 15.1276 14.0782 15.0344C14.4145 14.9625 14.737 14.8401 15.0361 14.6692L15.2589 12.6043C15.0693 12.6586 14.9051 12.6994 14.7702 12.7266C14.6041 12.7538 14.432 12.7674 14.262 12.7655Z"
          fill="#1D1DFF"/>
    <path d="M17.2391 7.82061C17.6555 8.1625 18.1872 8.33538 18.7267 8.30624C19.2701 8.33927 19.8057 8.16444 20.224 7.82061C20.5934 7.47484 20.7909 6.98726 20.7635 6.48414C20.7928 5.9752 20.5954 5.47791 20.224 5.12631C19.8037 4.78248 19.2701 4.60765 18.7267 4.64067C18.1872 4.61154 17.6555 4.78442 17.2391 5.12631C16.8618 5.47402 16.6605 5.97131 16.6898 6.48414C16.6625 6.9892 16.8638 7.47872 17.2391 7.82061Z"
          fill="#1D1DFF"/>
    <path d="M19.9073 11.8318C19.5398 11.5909 19.1039 11.4705 18.664 11.488C18.3181 11.4861 17.9779 11.5618 17.6652 11.7114C17.3583 11.8551 17.0983 12.0785 16.9106 12.3602C16.7093 12.6827 16.6096 13.0556 16.6252 13.4344C16.6116 13.7646 16.6995 14.089 16.8794 14.3668C17.0377 14.5999 17.2566 14.7884 17.5107 14.9127C17.7414 15.0292 17.9955 15.0914 18.2555 15.0953C18.4002 15.0992 18.5428 15.0856 18.6836 15.0545C18.7794 15.0331 18.8693 14.9923 18.9475 14.9321L19.0491 14.9923C18.9143 15.2954 18.7325 15.5751 18.5096 15.8218C18.2594 16.1015 17.9799 16.354 17.673 16.5716C17.3485 16.8028 16.9966 16.9951 16.6233 17.1388L18.0288 18.1722C18.5507 17.9411 19.0257 17.6147 19.4244 17.2087C19.8545 16.7794 20.2063 16.2802 20.4644 15.7305C20.7263 15.1827 20.8612 14.5844 20.8612 13.9783C20.867 13.551 20.7869 13.1275 20.6266 12.7332C20.482 12.3699 20.2317 12.0572 19.9073 11.8318Z"
          fill="#1D1DFF"/>
    <path d="M29.8746 6.57653C29.685 6.17442 29.4269 5.8034 29.1103 5.48288C28.5141 4.90983 27.7068 4.60485 26.8779 4.64176C26.0882 4.62622 25.3102 4.84573 24.6456 5.2692C23.979 5.71404 23.4552 6.33954 23.1385 7.07188C22.7534 7.98098 22.5697 8.96197 22.599 9.94878C22.5736 10.9142 22.7514 11.8719 23.1189 12.7655C23.42 13.4939 23.9302 14.1175 24.587 14.5584C25.2457 14.978 26.0159 15.1936 26.7978 15.1761C27.4057 15.1859 28.0039 15.0421 28.5414 14.7585C29.0536 14.4807 29.4875 14.0806 29.8062 13.593C29.9254 13.4084 30.029 13.2142 30.117 13.0141L30.244 14.9702H33.3423V0.548828H29.8765V6.57653H29.8746ZM29.6498 11.3882C29.5345 11.7573 29.3097 12.0856 29.0086 12.3303C28.7174 12.544 28.3636 12.6547 28.0019 12.645C27.4526 12.6683 26.9249 12.4216 26.5925 11.9865C26.2524 11.5475 26.0824 10.8559 26.0824 9.90993C26.0824 8.96585 26.2563 8.27236 26.6023 7.83335C26.9385 7.39822 27.4683 7.15346 28.0195 7.17483C28.3811 7.16512 28.7369 7.27584 29.0282 7.48952C29.3253 7.72457 29.5442 8.0412 29.6596 8.40057C29.812 8.86872 29.8844 9.35824 29.8746 9.84971C29.8863 10.3703 29.8101 10.8909 29.6498 11.3882Z"
          fill="#1D1DFF"/>
    <path d="M42.4493 4.8457L40.3089 12.5615L38.2095 4.8457H34.5601L38.2291 14.9722H42.3672L46.0362 4.8457H42.4493Z"
          fill="#1D1DFF"/>
    <rect x="48" y="5" width="23.9999" height="10.001" rx="4.61537" fill="#1D1DFF"/>
    <path d="M52.498 12.083V7.81836H54.5722C55.0977 7.82267 55.4854 7.9239 55.7353 8.12205C55.9851 8.3159 56.11 8.59805 56.11 8.96851C56.11 9.20974 56.039 9.41866 55.8968 9.59528C55.7547 9.76759 55.5371 9.87743 55.2442 9.92482V9.93128C55.5716 9.97435 55.815 10.0885 55.9743 10.2737C56.138 10.4547 56.2199 10.6744 56.2199 10.9328C56.2199 11.299 56.0907 11.5833 55.8322 11.7857C55.5737 11.9839 55.186 12.083 54.6691 12.083H52.498ZM53.5707 11.3011H54.4817C54.6842 11.3011 54.835 11.2602 54.934 11.1784C55.0331 11.0965 55.0827 10.978 55.0827 10.823C55.0827 10.6722 55.0331 10.558 54.934 10.4805C54.835 10.3987 54.6842 10.3577 54.4817 10.3577H53.5707V11.3011ZM53.5707 9.56297H54.3784C54.7747 9.56297 54.9728 9.40789 54.9728 9.09774C54.9728 8.78759 54.7747 8.63251 54.3784 8.63251H53.5707V9.56297Z"
          fill="white"/>
    <path d="M56.9151 12.083V7.81836H60.2363V8.67774H58.0265V9.54359H59.784V10.3513H58.0265V11.2236H60.3203V12.083H56.9151Z"
          fill="white"/>
    <path d="M64.5776 7.81836V8.67774H63.1883V12.083H62.077V8.67774H60.6813V7.81836H64.5776Z" fill="white"/>
    <path d="M68.5534 12.083H67.4097L67.1125 11.1202H65.6522L65.3485 12.083H64.2307L65.7297 7.81836H67.0608L68.5534 12.083ZM65.859 10.3642H66.9057L66.3823 8.63897L65.859 10.3642Z"
          fill="white"/>
</svg>
