<svg width="49" height="11" viewBox="0 0 49 11" fill="none" xmlns="http://www.w3.org/2000/svg">
    <path d="M4.2893 7.09414C4.12964 7.14027 3.96545 7.16165 3.799 7.15828C3.59178 7.17065 3.38795 7.10539 3.22603 6.97598C3.07316 6.81395 2.9973 6.59339 3.01994 6.37172V4.01316H4.77847V2.5942H3.01994V0.728516L1.0123 1.2799V2.5942H-0.00341797V4.01429H1.01116V6.70142C0.99984 7.08401 1.09609 7.4621 1.28859 7.79293C1.46863 8.06862 1.7336 8.27904 2.04499 8.39157C2.41754 8.52435 2.81159 8.58849 3.20791 8.57949C3.51817 8.57949 3.82844 8.5401 4.12851 8.46246C4.39461 8.39944 4.64712 8.28804 4.87246 8.13388L4.65958 6.90172C4.54974 6.98724 4.42405 7.0525 4.2893 7.09414Z"
          fill="white" style="opacity: 0.4"/>
    <path d="M8.26179 7.18311C8.09873 7.19999 7.93681 7.13922 7.82471 7.01882C7.7228 6.8534 7.6775 6.65986 7.69562 6.46744V0.107422H5.68799V6.72512C5.68799 7.38228 5.82953 7.85489 6.11261 8.14521C6.3957 8.4344 6.85203 8.57956 7.48274 8.57956C7.70921 8.57844 7.93568 8.55143 8.15535 8.49742C8.35011 8.45578 8.53695 8.38489 8.7102 8.28587L8.83928 7.08971C8.72945 7.12122 8.63433 7.14485 8.5562 7.1606C8.45995 7.17636 8.3603 7.18423 8.26179 7.18311Z"
          fill="white" style="opacity: 0.4"/>
    <path d="M9.98632 4.31896C10.2275 4.51701 10.5355 4.61716 10.848 4.60028C11.1628 4.61941 11.4731 4.51813 11.7154 4.31896C11.9294 4.11866 12.0438 3.83622 12.0279 3.54478C12.0449 3.24996 11.9305 2.96189 11.7154 2.75822C11.4719 2.55904 11.1628 2.45777 10.848 2.4769C10.5355 2.46002 10.2275 2.56017 9.98632 2.75822C9.76778 2.95964 9.65115 3.24771 9.66813 3.54478C9.65228 3.83735 9.76891 4.12091 9.98632 4.31896Z"
          fill="white" style="opacity: 0.4"/>
    <path d="M11.5317 6.64154C11.3188 6.50201 11.0663 6.43224 10.8116 6.44237C10.6111 6.44125 10.4141 6.48513 10.2329 6.57178C10.0552 6.65505 9.90455 6.78445 9.79585 6.94761C9.67922 7.13441 9.62147 7.35046 9.63053 7.56988C9.6226 7.76118 9.67356 7.9491 9.77773 8.11001C9.86945 8.24504 9.99627 8.35419 10.1435 8.42621C10.2771 8.49372 10.4243 8.52973 10.5749 8.53198C10.6587 8.53423 10.7413 8.52636 10.8229 8.50835C10.8784 8.49597 10.9304 8.47234 10.9757 8.43746L11.0346 8.47234C10.9565 8.64788 10.8512 8.80992 10.7221 8.95283C10.5772 9.11487 10.4152 9.26115 10.2375 9.38718C10.0495 9.52109 9.84567 9.63249 9.62939 9.71576L10.4435 10.3144C10.7459 10.1805 11.021 9.99145 11.252 9.75627C11.5011 9.50758 11.705 9.21839 11.8544 8.89994C12.0062 8.58262 12.0843 8.23604 12.0843 7.88496C12.0877 7.6374 12.0413 7.39209 11.9484 7.16366C11.8646 6.95324 11.7197 6.77207 11.5317 6.64154Z"
          fill="white" style="opacity: 0.4"/>
    <path d="M17.3057 3.59717C17.1959 3.36424 17.0464 3.14931 16.8629 2.96365C16.5176 2.63169 16.0499 2.45502 15.5698 2.47641C15.1123 2.4674 14.6617 2.59456 14.2767 2.83987C13.8905 3.09755 13.5871 3.45989 13.4036 3.88411C13.1806 4.41074 13.0741 4.979 13.0911 5.55063C13.0764 6.10989 13.1794 6.66465 13.3923 7.18227C13.5667 7.60424 13.8622 7.96545 14.2427 8.22089C14.6243 8.46395 15.0704 8.58885 15.5234 8.57872C15.8755 8.58435 16.222 8.50108 16.5334 8.33679C16.8301 8.17588 17.0815 7.94407 17.2661 7.66163C17.3351 7.55473 17.3951 7.44221 17.4461 7.3263L17.5197 8.45945H19.3145V0.105469H17.3068V3.59717H17.3057ZM17.1755 6.38446C17.1087 6.59826 16.9784 6.78843 16.8041 6.93021C16.6353 7.05399 16.4304 7.11813 16.2209 7.1125C15.9027 7.12601 15.597 6.9831 15.4045 6.73104C15.2075 6.47673 15.1089 6.07613 15.1089 5.52813C15.1089 4.98125 15.2097 4.57953 15.4101 4.32522C15.6049 4.07316 15.9118 3.93137 16.2311 3.94375C16.4406 3.93813 16.6467 4.00227 16.8154 4.12605C16.9875 4.2622 17.1143 4.44562 17.1811 4.6538C17.2695 4.92498 17.3114 5.20855 17.3057 5.49324C17.3125 5.79482 17.2683 6.09639 17.1755 6.38446Z"
          fill="white" style="opacity: 0.4"/>
    <path d="M24.5901 2.59375L23.3502 7.0633L22.1341 2.59375H20.02L22.1454 8.45976H24.5425L26.6679 2.59375H24.5901Z"
          fill="white" style="opacity: 0.4"/>
    <rect x="27.8052" y="0.908203" width="20.74" height="8.64256" rx="3.98846" fill="white" style="opacity: 0.4"/>
    <path d="M31.6924 7.02909V3.34375H33.4848C33.939 3.34747 34.274 3.43495 34.4899 3.60619C34.7058 3.77371 34.8138 4.01753 34.8138 4.33767C34.8138 4.54614 34.7523 4.72668 34.6295 4.87931C34.5066 5.02821 34.3187 5.12314 34.0655 5.16408V5.16967C34.3484 5.20689 34.5588 5.30554 34.6965 5.46561C34.8379 5.62196 34.9087 5.81181 34.9087 6.03516C34.9087 6.35158 34.797 6.59727 34.5736 6.77223C34.3503 6.94347 34.0153 7.02909 33.5686 7.02909H31.6924ZM32.6193 6.35344H33.4066C33.5816 6.35344 33.7119 6.31808 33.7975 6.24735C33.8831 6.17662 33.9259 6.07425 33.9259 5.94024C33.9259 5.80995 33.8831 5.7113 33.7975 5.64429C33.7119 5.57357 33.5816 5.5382 33.4066 5.5382H32.6193V6.35344ZM32.6193 4.85139H33.3173C33.6598 4.85139 33.831 4.71738 33.831 4.44935C33.831 4.18133 33.6598 4.04731 33.3173 4.04731H32.6193V4.85139Z"
          fill="#1D1DFF"/>
    <path d="M35.5095 7.02909V3.34375H38.3796V4.0864H36.4699V4.83464H37.9887V5.53262H36.4699V6.28644H38.4522V7.02909H35.5095Z"
          fill="#1D1DFF"/>
    <path d="M42.1311 3.34375V4.0864H40.9306V7.02909H39.9702V4.0864H38.7641V3.34375H42.1311Z" fill="#1D1DFF"/>
    <path d="M45.5669 7.02909H44.5786L44.3217 6.1971H43.0598L42.7973 7.02909H41.8313L43.1268 3.34375H44.2771L45.5669 7.02909ZM43.2385 5.54379H44.1431L43.6908 4.0529L43.2385 5.54379Z"
          fill="#1D1DFF"/>
</svg>
