<svg xmlns="http://www.w3.org/2000/svg" width="63.25" height="12.2" viewBox="0 0 63.25 12.2">
    <defs>
        <style>.a{fill:#1d1dff;}.b{fill:#000082;}.c{fill:#fff;}</style>
    </defs>
    <g transform="translate(-15.95 -16)">
        <g transform="translate(14.95 17)">
            <g transform="translate(1)">
                <path class="a"
                      d="M1051.631-490.491v1.538h-6.02v-1.538Zm-2.215-2.021v6.114a.769.769,0,0,0,.26.655,1.169,1.169,0,0,0,.721.2,2.4,2.4,0,0,0,.617-.07,1.555,1.555,0,0,0,.468-.21l.268,1.335a3.072,3.072,0,0,1-.936.356,5.276,5.276,0,0,1-1.16.127,4.694,4.694,0,0,1-1.464-.2,1.886,1.886,0,0,1-.951-.648,1.986,1.986,0,0,1-.349-1.182v-5.872Z"
                      transform="translate(-1045.611 493.186)"/>
                <path class="a"
                      d="M1138.784-502.479v6.889a.875.875,0,0,0,.164.6.718.718,0,0,0,.55.178,2.245,2.245,0,0,0,.371-.025q.148-.025.357-.076l-.164,1.3a2.7,2.7,0,0,1-.7.229,4.2,4.2,0,0,1-.847.089,2.58,2.58,0,0,1-1.724-.47,1.953,1.953,0,0,1-.535-1.538v-7.168Z"
                      transform="translate(-1129.093 502.479)"/>
                <path class="a"
                      d="M1200.553-460.194a1.727,1.727,0,0,1,.906.216,1.35,1.35,0,0,1,.528.566,1.763,1.763,0,0,1,.171.782,2.255,2.255,0,0,1-.29,1.1,3.327,3.327,0,0,1-.758.928,3.349,3.349,0,0,1-1.018.6l-1.025-.648a3.685,3.685,0,0,0,.765-.356,3.529,3.529,0,0,0,.61-.47,1.972,1.972,0,0,0,.394-.521l-.074-.038a.549.549,0,0,1-.193.076,1.546,1.546,0,0,1-.312.025,1.406,1.406,0,0,1-.543-.114,1.155,1.155,0,0,1-.46-.343.9.9,0,0,1-.186-.585,1.062,1.062,0,0,1,.208-.674,1.307,1.307,0,0,1,.55-.407A1.908,1.908,0,0,1,1200.553-460.194Zm.044-4.3a1.747,1.747,0,0,1,1.093.305,1.016,1.016,0,0,1,.393.852,1,1,0,0,1-.393.839,1.746,1.746,0,0,1-1.093.305,1.751,1.751,0,0,1-1.085-.305,1,1,0,0,1-.4-.839,1.009,1.009,0,0,1,.4-.852A1.751,1.751,0,0,1,1200.6-464.49Z"
                      transform="translate(-1186.939 467.057)"/>
                <path class="a"
                      d="M1257.226-493.3a3.241,3.241,0,0,1-1.612-.388,2.64,2.64,0,0,1-1.07-1.125,3.821,3.821,0,0,1-.379-1.767,3.793,3.793,0,0,1,.394-1.8,2.746,2.746,0,0,1,1.1-1.131,3.285,3.285,0,0,1,1.627-.394,2.419,2.419,0,0,1,1.627.527,2.39,2.39,0,0,1,.8,1.341l-.238.267v-4.7H1262v9.049h-2.259l-.164-2.161.3.191a2.294,2.294,0,0,1-.453,1.106,2.469,2.469,0,0,1-.922.731A2.968,2.968,0,0,1,1257.226-493.3Zm.877-1.589a1.325,1.325,0,0,0,.736-.2,1.247,1.247,0,0,0,.468-.591,2.528,2.528,0,0,0,.163-.966,2.36,2.36,0,0,0-.156-.909,1.213,1.213,0,0,0-.46-.572,1.328,1.328,0,0,0-.736-.2,1.333,1.333,0,0,0-1.033.413,1.887,1.887,0,0,0-.379,1.3,1.91,1.91,0,0,0,.371,1.3A1.308,1.308,0,0,0,1258.1-494.891Z"
                      transform="translate(-1237.683 502.479)"/>
                <path class="a" d="M1370.309-462.61h2.616l-2.675,6.355h-3.017l-2.675-6.355h2.66l1.531,4.842Z"
                      transform="translate(-1339.351 465.305)"/>
            </g>
        </g>
        <g transform="translate(16012 11891)">
            <rect class="b" width="24.2" height="12.2" rx="4" transform="translate(-15957 -11875)"/>
            <path class="c"
                  d="M.876-3.095V-7.92H3.265A2.222,2.222,0,0,1,4.6-7.58a1.141,1.141,0,0,1,.432.961,1.07,1.07,0,0,1-.246.706,1.173,1.173,0,0,1-.752.377v.007a1.318,1.318,0,0,1,.845.384,1.082,1.082,0,0,1,.279.749,1.138,1.138,0,0,1-.446.961,2.2,2.2,0,0,1-1.339.34Zm1.235-.885H3.16a.816.816,0,0,0,.521-.139.488.488,0,0,0,.171-.4.469.469,0,0,0-.171-.391.833.833,0,0,0-.521-.135H2.111Zm0-1.967h.93q.685,0,.685-.526T3.041-7h-.93ZM5.966-3.095V-7.92H9.79v.972H7.246v.98H9.27v.914H7.246v.987H9.887v.972ZM14.791-7.92v.972h-1.6v3.853h-1.28V-6.948H10.3V-7.92Zm-.4,4.825L16.115-7.92h1.533l1.719,4.825H18.05l-.96-3.1-.216-.76H16.86l-.2.753-.982,3.107Zm1.124-1.089v-.855h2.731v.855Z"
                  transform="translate(-15954.876 -11863.08)"/>
        </g>
    </g>
</svg>
