<svg xmlns="http://www.w3.org/2000/svg" xmlns:xlink="http://www.w3.org/1999/xlink" width="40" height="40" viewBox="0 0 40 40">
  <defs>
    <clipPath id="clip-logo_40x40_black">
      <rect width="40" height="40"/>
    </clipPath>
  </defs>
  <g id="logo_40x40_black" clip-path="url(#clip-logo_40x40_black)">
    <path id="Caminho_42" data-name="Caminho 42" d="M1203.458-449.646a4.528,4.528,0,0,1,2.679.747,4.458,4.458,0,0,1,1.559,1.954,6.955,6.955,0,0,1,.5,2.7,8.833,8.833,0,0,1-.856,3.8,11.285,11.285,0,0,1-2.24,3.206,9.7,9.7,0,0,1-3.008,2.086l-3.03-2.24a10.258,10.258,0,0,0,2.262-1.229,10.813,10.813,0,0,0,1.8-1.625,6.861,6.861,0,0,0,1.163-1.8l-.22-.132a1.492,1.492,0,0,1-.571.263,3.942,3.942,0,0,1-.922.088,3.644,3.644,0,0,1-1.6-.4,3.517,3.517,0,0,1-1.361-1.186,3.462,3.462,0,0,1-.549-2.02,4.106,4.106,0,0,1,.615-2.328,3.978,3.978,0,0,1,1.625-1.405A4.927,4.927,0,0,1,1203.458-449.646Zm.132-14.844a4.635,4.635,0,0,1,3.228,1.054,3.77,3.77,0,0,1,1.164,2.942,3.715,3.715,0,0,1-1.164,2.9,4.634,4.634,0,0,1-3.228,1.054,4.65,4.65,0,0,1-3.206-1.054,3.679,3.679,0,0,1-1.186-2.9,3.733,3.733,0,0,1,1.186-2.942A4.65,4.65,0,0,1,1203.59-464.49Z" transform="translate(-1183.458 469.316)"/>
  </g>
</svg>
