<?xml version="1.0" encoding="UTF-8"?>
<svg xmlns="http://www.w3.org/2000/svg" xmlns:xlink="http://www.w3.org/1999/xlink" width="24pt" height="24pt"
     viewBox="0 0 24 24" version="1.1">
    <g id="surface1">
        <path style=" stroke:none;fill-rule:nonzero;fill:rgb(95.294118%,95.294118%,95.294118%);fill-opacity:1;"
              d="M 5.261719 6.738281 L 5.261719 13.539062 L 18.738281 13.539062 L 18.738281 6.738281 C 18.738281 3.023438 15.714844 0 12 0 C 8.28125 0 5.261719 3.023438 5.261719 6.738281 Z M 6.394531 6.738281 C 6.394531 3.644531 8.902344 1.132812 12 1.132812 C 15.09375 1.132812 17.605469 3.644531 17.605469 6.738281 L 17.605469 12.40625 L 6.394531 12.40625 Z M 6.394531 6.738281 "/>
        <path style=" stroke:none;fill-rule:nonzero;fill:rgb(89.803922%,89.803922%,89.803922%);fill-opacity:1;"
              d="M 6.394531 6.738281 L 6.394531 12.40625 L 17.605469 12.40625 L 17.605469 6.738281 C 17.605469 3.644531 15.09375 1.132812 12 1.132812 C 8.902344 1.132812 6.394531 3.644531 6.394531 6.738281 Z M 7.527344 6.738281 C 7.527344 4.273438 9.535156 2.265625 12 2.265625 C 14.464844 2.265625 16.472656 4.273438 16.472656 6.738281 L 16.472656 11.273438 L 7.527344 11.273438 Z M 7.527344 6.738281 "/>
        <path style=" stroke:none;fill-rule:nonzero;fill:rgb(100%,80%,35.686275%);fill-opacity:1;"
              d="M 4.476562 24 L 19.523438 24 C 20.355469 24 21.035156 23.324219 21.035156 22.488281 L 21.035156 11.5625 C 21.035156 10.730469 20.355469 10.050781 19.523438 10.050781 L 4.476562 10.050781 C 3.644531 10.050781 2.964844 10.730469 2.964844 11.5625 L 2.964844 22.488281 C 2.964844 23.324219 3.644531 24 4.476562 24 Z M 4.476562 24 "/>
        <path style=" stroke:none;fill-rule:nonzero;fill:rgb(99.215686%,73.72549%,29.411765%);fill-opacity:1;"
              d="M 14.632812 17.992188 L 15.203125 17.992188 C 15.6875 17.992188 16.082031 17.597656 16.078125 17.113281 L 16.078125 17.039062 C 16.082031 16.527344 15.664062 16.109375 15.15625 16.109375 L 14.414062 16.109375 C 13.851562 16.109375 13.34375 15.6875 13.3125 15.121094 C 13.28125 14.519531 13.761719 14.023438 14.355469 14.023438 L 17.027344 14.023438 C 17.53125 14.023438 17.90625 13.597656 17.902344 13.09375 C 17.902344 13.089844 17.902344 13.085938 17.902344 13.082031 C 17.902344 13.078125 17.902344 13.074219 17.902344 13.066406 C 17.90625 12.5625 17.53125 12.140625 17.027344 12.140625 L 16.164062 12.140625 C 15.597656 12.140625 15.089844 11.714844 15.0625 11.152344 C 15.03125 10.550781 15.507812 10.050781 16.105469 10.050781 L 19.523438 10.050781 C 20.355469 10.050781 21.035156 10.726562 21.035156 11.5625 L 21.035156 22.488281 C 21.035156 23.324219 20.355469 24 19.523438 24 L 15.09375 24 C 14.519531 24 14.050781 23.53125 14.050781 22.953125 C 14.050781 22.378906 14.519531 21.910156 15.09375 21.910156 L 16.492188 21.910156 C 16.976562 21.910156 17.367188 21.515625 17.367188 21.03125 L 17.367188 21.019531 C 17.367188 21 17.367188 20.976562 17.367188 20.957031 C 17.398438 20.480469 17.019531 20.078125 16.542969 20.078125 L 14.691406 20.078125 C 14.125 20.078125 13.617188 19.65625 13.589844 19.09375 C 13.558594 18.492188 14.035156 17.992188 14.632812 17.992188 Z M 14.632812 17.992188 "/>
        <path style=" stroke:none;fill-rule:nonzero;fill:rgb(27.45098%,27.45098%,27.45098%);fill-opacity:1;"
              d="M 9.730469 15.738281 C 9.730469 14.484375 10.746094 13.46875 12 13.46875 C 13.253906 13.46875 14.269531 14.484375 14.269531 15.738281 C 14.269531 16.574219 13.8125 17.300781 13.136719 17.695312 L 13.449219 20.585938 L 10.550781 20.585938 L 10.863281 17.695312 C 10.1875 17.300781 9.730469 16.578125 9.730469 15.738281 Z M 9.730469 15.738281 "/>
        <path style=" stroke:none;fill-rule:nonzero;fill:rgb(100%,84.313725%,41.176471%);fill-opacity:1;"
              d="M 5.261719 15.664062 C 5.675781 15.664062 6.015625 16 6.015625 16.417969 L 6.015625 20.769531 C 6.015625 21.183594 5.675781 21.523438 5.261719 21.523438 C 4.84375 21.523438 4.503906 21.183594 4.503906 20.769531 L 4.503906 16.417969 C 4.503906 16 4.84375 15.664062 5.261719 15.664062 Z M 5.261719 15.664062 "/>
        <path style=" stroke:none;fill-rule:nonzero;fill:rgb(100%,84.313725%,41.176471%);fill-opacity:1;"
              d="M 5.261719 12.527344 C 5.675781 12.527344 6.015625 12.867188 6.015625 13.285156 L 6.015625 14.167969 C 6.015625 14.585938 5.675781 14.925781 5.261719 14.925781 C 4.84375 14.925781 4.503906 14.585938 4.503906 14.167969 L 4.503906 13.285156 C 4.503906 12.867188 4.84375 12.527344 5.261719 12.527344 Z M 5.261719 12.527344 "/>
    </g>
</svg>
