<svg xmlns="http://www.w3.org/2000/svg" width="24" height="24" viewBox="0 0 24 24"><defs><style>.a{fill:none;}.b{fill:#fff;}</style></defs><path class="a" d="M0,0H24V24H0Z"/><g transform="translate(-27.955 34.009)"><g transform="translate(33.391 -30)"><path class="b" d="M44.55-20.582a4.6,4.6,0,0,1-4.595,4.595,4.6,4.6,0,0,1-4.595-4.595,4.6,4.6,0,0,1,4.595-4.595v2.854l3.839-3.839L39.955-30v2.854a6.564,6.564,0,0,0-6.564,6.564,6.564,6.564,0,0,0,6.564,6.564,6.564,6.564,0,0,0,6.564-6.564Z" transform="translate(-33.391 30)"/></g></g></svg>