<svg xmlns="http://www.w3.org/2000/svg" width="46.486" height="17" viewBox="0 0 46.486 17"><defs><style>.a{fill:#1d1dff;}</style></defs><path class="a" d="M1053.945-489.405v2.364h-8.334v-2.364Zm-3.066-3.107v9.4a1.248,1.248,0,0,0,.36,1.006,1.5,1.5,0,0,0,1,.3,3.009,3.009,0,0,0,.854-.107,2.057,2.057,0,0,0,.648-.323l.37,2.052a4,4,0,0,1-1.3.547,6.606,6.606,0,0,1-1.605.2,5.9,5.9,0,0,1-2.027-.313,2.626,2.626,0,0,1-1.317-1,3.3,3.3,0,0,1-.483-1.817v-9.028Z" transform="translate(-1045.611 493.548)"/><path class="a" d="M1139.755-502.479v10.591a1.451,1.451,0,0,0,.226.918.936.936,0,0,0,.761.274,2.809,2.809,0,0,0,.515-.039q.206-.039.494-.117l-.226,1.993a3.492,3.492,0,0,1-.967.352,5.254,5.254,0,0,1-1.173.137,3.324,3.324,0,0,1-2.387-.723,3.2,3.2,0,0,1-.741-2.364v-11.021Z" transform="translate(-1126.338 502.479)"/><path class="a" d="M1201.124-457.886a2.2,2.2,0,0,1,1.255.332,2.005,2.005,0,0,1,.731.87,2.957,2.957,0,0,1,.237,1.2,3.765,3.765,0,0,1-.4,1.69,5.031,5.031,0,0,1-1.049,1.426,4.561,4.561,0,0,1-1.41.928l-1.42-1a4.885,4.885,0,0,0,1.059-.547,4.977,4.977,0,0,0,.844-.723,3.028,3.028,0,0,0,.545-.8l-.1-.059a.721.721,0,0,1-.268.117,1.941,1.941,0,0,1-.432.039,1.779,1.779,0,0,1-.751-.176,1.625,1.625,0,0,1-.638-.528,1.482,1.482,0,0,1-.257-.9,1.758,1.758,0,0,1,.288-1.036,1.837,1.837,0,0,1,.762-.625A2.41,2.41,0,0,1,1201.124-457.886Zm.061-6.6a2.247,2.247,0,0,1,1.513.469,1.635,1.635,0,0,1,.545,1.309,1.612,1.612,0,0,1-.545,1.29,2.247,2.247,0,0,1-1.513.469,2.253,2.253,0,0,1-1.5-.469,1.6,1.6,0,0,1-.556-1.29,1.621,1.621,0,0,1,.556-1.309A2.253,2.253,0,0,1,1201.186-464.49Z" transform="translate(-1182.275 468.437)"/><path class="a" d="M1258.4-488.371a4.133,4.133,0,0,1-2.233-.6,3.906,3.906,0,0,1-1.482-1.729,6.424,6.424,0,0,1-.525-2.716,6.367,6.367,0,0,1,.545-2.775,4.054,4.054,0,0,1,1.523-1.739,4.191,4.191,0,0,1,2.253-.606,3.138,3.138,0,0,1,2.253.811,3.771,3.771,0,0,1,1.1,2.062l-.329.41v-7.23h3.5v13.913h-3.128l-.226-3.322.412.293a3.743,3.743,0,0,1-.628,1.7,3.5,3.5,0,0,1-1.276,1.123A3.764,3.764,0,0,1,1258.4-488.371Zm1.214-2.443a1.7,1.7,0,0,0,1.018-.3,1.9,1.9,0,0,0,.648-.909,4.268,4.268,0,0,0,.226-1.485,3.99,3.99,0,0,0-.216-1.4,1.839,1.839,0,0,0-.638-.879,1.7,1.7,0,0,0-1.019-.3,1.757,1.757,0,0,0-1.43.635,3.122,3.122,0,0,0-.525,2,3.167,3.167,0,0,0,.514,2A1.727,1.727,0,0,0,1259.618-490.813Z" transform="translate(-1231.344 502.479)"/><path class="a" d="M1372.522-462.61h3.622l-3.7,9.77h-4.177l-3.7-9.77h3.684l2.12,7.445Z" transform="translate(-1329.657 466.752)"/></svg>