<svg xmlns="http://www.w3.org/2000/svg" width="70" height="25" viewBox="0 0 76.486 28">
    <defs>
        <style>.a{fill:#1d1dff;}</style>
    </defs>
    <path class="a"
          d="M1059.324-487.395v3.894h-13.713v-3.894Zm-5.045-5.117v15.48a2.057,2.057,0,0,0,.592,1.657,2.471,2.471,0,0,0,1.642.5,4.943,4.943,0,0,0,1.406-.177,3.381,3.381,0,0,0,1.066-.531l.61,3.379a6.583,6.583,0,0,1-2.133.9,10.864,10.864,0,0,1-2.641.322,9.7,9.7,0,0,1-3.335-.515,4.321,4.321,0,0,1-2.167-1.641,5.437,5.437,0,0,1-.8-2.993V-491Z"
          transform="translate(-1045.611 494.218)"/>
    <path class="a"
          d="M1142.013-502.479v17.444a2.392,2.392,0,0,0,.373,1.513,1.539,1.539,0,0,0,1.252.451,4.62,4.62,0,0,0,.847-.064q.338-.064.813-.193l-.372,3.283a5.744,5.744,0,0,1-1.592.579,8.64,8.64,0,0,1-1.93.225,5.467,5.467,0,0,1-3.928-1.191,5.273,5.273,0,0,1-1.219-3.894v-18.152Z"
          transform="translate(-1119.937 502.479)"/>
    <path class="a"
          d="M1202.452-453.612a3.624,3.624,0,0,1,2.065.547,3.3,3.3,0,0,1,1.2,1.432,4.877,4.877,0,0,1,.389,1.979,6.207,6.207,0,0,1-.66,2.784,8.291,8.291,0,0,1-1.727,2.349,7.5,7.5,0,0,1-2.319,1.529l-2.336-1.642a8.035,8.035,0,0,0,1.743-.9,8.188,8.188,0,0,0,1.389-1.191,4.989,4.989,0,0,0,.9-1.32l-.169-.1a1.184,1.184,0,0,1-.44.193,3.191,3.191,0,0,1-.711.064,2.926,2.926,0,0,1-1.236-.29,2.675,2.675,0,0,1-1.05-.869,2.444,2.444,0,0,1-.423-1.481,2.9,2.9,0,0,1,.474-1.706,3.023,3.023,0,0,1,1.253-1.03A3.963,3.963,0,0,1,1202.452-453.612Zm.1-10.878a3.7,3.7,0,0,1,2.489.772,2.7,2.7,0,0,1,.9,2.156,2.657,2.657,0,0,1-.9,2.124,3.694,3.694,0,0,1-2.489.772,3.705,3.705,0,0,1-2.471-.772,2.633,2.633,0,0,1-.914-2.124,2.67,2.67,0,0,1,.914-2.156A3.706,3.706,0,0,1,1202.553-464.49Z"
          transform="translate(-1171.438 470.991)"/>
    <path class="a"
          d="M1261.14-479.242a6.8,6.8,0,0,1-3.674-.982,6.431,6.431,0,0,1-2.438-2.848,10.591,10.591,0,0,1-.863-4.474,10.493,10.493,0,0,1,.9-4.57,6.673,6.673,0,0,1,2.506-2.865,6.889,6.889,0,0,1,3.707-1,5.161,5.161,0,0,1,3.708,1.336,6.212,6.212,0,0,1,1.812,3.4l-.542.676v-11.908h5.756v22.915h-5.146l-.373-5.471.677.483a6.171,6.171,0,0,1-1.033,2.8,5.766,5.766,0,0,1-2.1,1.85A6.189,6.189,0,0,1,1261.14-479.242Zm2-4.023a2.794,2.794,0,0,0,1.676-.5,3.127,3.127,0,0,0,1.067-1.5,7.036,7.036,0,0,0,.373-2.446,6.576,6.576,0,0,0-.356-2.3,3.03,3.03,0,0,0-1.049-1.448,2.8,2.8,0,0,0-1.676-.5,2.89,2.89,0,0,0-2.353,1.046,5.146,5.146,0,0,0-.863,3.3,5.22,5.22,0,0,0,.846,3.3A2.84,2.84,0,0,0,1263.138-483.265Z"
          transform="translate(-1216.617 502.479)"/>
    <path class="a" d="M1377.661-462.61h5.959l-6.094,16.092h-6.874l-6.094-16.092h6.061l3.487,12.262Z"
          transform="translate(-1307.134 469.433)"/>
</svg>
