<svg xmlns="http://www.w3.org/2000/svg" width="36.01" height="11.86" viewBox="0 0 36.01 11.86">
    <defs>
        <style>.a{fill:#1d1dff;}</style>
    </defs>
    <g transform="translate(-1)">
        <g transform="translate(1)">
            <path class="a"
                  d="M1052.067-490.344v1.649h-6.457v-1.649Zm-2.375-2.168v6.557a.825.825,0,0,0,.279.7,1.254,1.254,0,0,0,.773.211,2.576,2.576,0,0,0,.662-.075,1.669,1.669,0,0,0,.5-.225l.287,1.431a3.3,3.3,0,0,1-1,.382,5.657,5.657,0,0,1-1.244.136,5.037,5.037,0,0,1-1.57-.218,2.024,2.024,0,0,1-1.021-.7,2.131,2.131,0,0,1-.375-1.268v-6.3Z"
                  transform="translate(-1045.611 493.234)"/>
            <path class="a"
                  d="M1138.967-502.479v7.389a.937.937,0,0,0,.176.641.77.77,0,0,0,.59.191,2.4,2.4,0,0,0,.4-.027q.159-.027.383-.082l-.175,1.39a2.9,2.9,0,0,1-.749.245,4.5,4.5,0,0,1-.909.1,2.767,2.767,0,0,1-1.849-.5,2.1,2.1,0,0,1-.574-1.65v-7.689Z"
                  transform="translate(-1128.573 502.479)"/>
            <path class="a"
                  d="M1200.661-459.882a1.852,1.852,0,0,1,.972.232,1.448,1.448,0,0,1,.566.607,1.89,1.89,0,0,1,.183.838,2.419,2.419,0,0,1-.311,1.179,3.566,3.566,0,0,1-.813,1,3.593,3.593,0,0,1-1.092.647l-1.1-.7a3.954,3.954,0,0,0,.82-.381,3.787,3.787,0,0,0,.654-.5,2.119,2.119,0,0,0,.422-.559l-.08-.041a.591.591,0,0,1-.208.082,1.659,1.659,0,0,1-.335.027,1.508,1.508,0,0,1-.582-.123,1.241,1.241,0,0,1-.494-.368.962.962,0,0,1-.2-.627,1.139,1.139,0,0,1,.223-.722,1.4,1.4,0,0,1,.59-.436A2.045,2.045,0,0,1,1200.661-459.882Zm.047-4.608a1.873,1.873,0,0,1,1.172.327,1.09,1.09,0,0,1,.422.913,1.076,1.076,0,0,1-.422.9,1.873,1.873,0,0,1-1.172.327,1.878,1.878,0,0,1-1.163-.327,1.069,1.069,0,0,1-.43-.9,1.082,1.082,0,0,1,.43-.913A1.878,1.878,0,0,1,1200.708-464.49Z"
                  transform="translate(-1186.059 467.244)"/>
            <path class="a"
                  d="M1257.449-492.637a3.476,3.476,0,0,1-1.729-.416,2.831,2.831,0,0,1-1.148-1.207,4.1,4.1,0,0,1-.407-1.895,4.068,4.068,0,0,1,.422-1.936,2.945,2.945,0,0,1,1.18-1.213,3.523,3.523,0,0,1,1.745-.423,2.594,2.594,0,0,1,1.746.566,2.562,2.562,0,0,1,.853,1.438l-.255.286v-5.044h2.71v9.706h-2.423l-.176-2.318.319.2a2.461,2.461,0,0,1-.486,1.186,2.649,2.649,0,0,1-.989.784A3.184,3.184,0,0,1,1257.449-492.637Zm.941-1.7a1.421,1.421,0,0,0,.789-.211,1.338,1.338,0,0,0,.5-.634,2.71,2.71,0,0,0,.175-1.036,2.531,2.531,0,0,0-.168-.975,1.3,1.3,0,0,0-.494-.613,1.423,1.423,0,0,0-.789-.211,1.43,1.43,0,0,0-1.108.443,2.023,2.023,0,0,0-.406,1.4,2.049,2.049,0,0,0,.4,1.4A1.4,1.4,0,0,0,1258.389-494.341Z"
                  transform="translate(-1236.487 502.479)"/>
            <path class="a" d="M1370.727-462.61h2.806l-2.869,6.816h-3.236l-2.87-6.816h2.854l1.642,5.194Z"
                  transform="translate(-1337.522 465.5)"/>
        </g>
    </g>
</svg>
