<svg xmlns="http://www.w3.org/2000/svg" width="30" height="11" viewBox="0 0 30 11"><defs><style>.a{opacity:0.4;}.b{fill:#fff;}</style></defs><g class="a"><path class="b" d="M1050.99-490.5v1.53h-5.379v-1.53Zm-1.979-2.01v6.082a.809.809,0,0,0,.232.651.969.969,0,0,0,.644.2,1.938,1.938,0,0,0,.551-.069,1.326,1.326,0,0,0,.418-.209l.239,1.328a2.583,2.583,0,0,1-.837.354,4.253,4.253,0,0,1-1.036.126,3.8,3.8,0,0,1-1.308-.2,1.7,1.7,0,0,1-.85-.645,2.138,2.138,0,0,1-.312-1.176v-5.841Z" transform="translate(-1045.611 493.182)"/><path class="b" d="M1138.515-502.479v6.853a.94.94,0,0,0,.146.594.6.6,0,0,0,.491.177,1.8,1.8,0,0,0,.332-.025q.133-.025.319-.076l-.146,1.29a2.246,2.246,0,0,1-.624.228,3.385,3.385,0,0,1-.757.089,2.141,2.141,0,0,1-1.541-.468,2.074,2.074,0,0,1-.478-1.53v-7.131Z" transform="translate(-1129.856 502.479)"/><path class="b" d="M1200.394-460.216a1.419,1.419,0,0,1,.81.215,1.3,1.3,0,0,1,.472.563,1.919,1.919,0,0,1,.153.778,2.442,2.442,0,0,1-.259,1.094,3.259,3.259,0,0,1-.677.923,2.944,2.944,0,0,1-.91.6l-.916-.645a3.151,3.151,0,0,0,.684-.354,3.218,3.218,0,0,0,.545-.468,1.963,1.963,0,0,0,.352-.518l-.066-.038a.464.464,0,0,1-.173.076,1.247,1.247,0,0,1-.279.025,1.146,1.146,0,0,1-.485-.114,1.049,1.049,0,0,1-.411-.341.96.96,0,0,1-.166-.582,1.139,1.139,0,0,1,.186-.67,1.185,1.185,0,0,1,.491-.4A1.552,1.552,0,0,1,1200.394-460.216Zm.039-4.273a1.448,1.448,0,0,1,.976.3,1.059,1.059,0,0,1,.352.847,1.044,1.044,0,0,1-.352.834,1.447,1.447,0,0,1-.976.3,1.452,1.452,0,0,1-.969-.3,1.035,1.035,0,0,1-.359-.834,1.05,1.05,0,0,1,.359-.847A1.452,1.452,0,0,1,1200.434-464.49Z" transform="translate(-1188.23 467.044)"/><path class="b" d="M1256.9-493.35a2.662,2.662,0,0,1-1.441-.386,2.526,2.526,0,0,1-.956-1.119,4.166,4.166,0,0,1-.339-1.758,4.13,4.13,0,0,1,.352-1.8,2.62,2.62,0,0,1,.983-1.125,2.7,2.7,0,0,1,1.454-.392,2.022,2.022,0,0,1,1.454.525,2.441,2.441,0,0,1,.711,1.334l-.212.266v-4.678h2.258v9h-2.019l-.146-2.149.266.19a2.428,2.428,0,0,1-.405,1.1,2.264,2.264,0,0,1-.823.727A2.425,2.425,0,0,1,1256.9-493.35Zm.784-1.58a1.094,1.094,0,0,0,.657-.2,1.227,1.227,0,0,0,.418-.588,2.768,2.768,0,0,0,.146-.961,2.586,2.586,0,0,0-.14-.9,1.19,1.19,0,0,0-.411-.569,1.1,1.1,0,0,0-.657-.2,1.133,1.133,0,0,0-.923.411,2.024,2.024,0,0,0-.339,1.3,2.054,2.054,0,0,0,.332,1.3A1.113,1.113,0,0,0,1257.684-494.931Z" transform="translate(-1239.438 502.479)"/><path class="b" d="M1369.7-462.61h2.337l-2.39,6.322h-2.7l-2.39-6.322h2.377l1.368,4.817Z" transform="translate(-1342.035 465.29)"/></g></svg>