<svg xmlns="http://www.w3.org/2000/svg" width="41.895" height="9.415" viewBox="0 0 41.895 9.415"><defs><style>.a{fill:#fff;fill-rule:evenodd;}</style></defs><path class="a" d="M34.11,3.525a2.031,2.031,0,0,1,.23.944l.023.471V8.234l.023.472a1.446,1.446,0,0,0,1.39,1.388l.469.023V4.94l.023-.471a2.062,2.062,0,0,1,.234-.948,1.881,1.881,0,0,1,3.257.006,2.072,2.072,0,0,1,.229.942l.023.47v3.3l.023.472a1.44,1.44,0,0,0,1.39,1.388l.469.023V4.469a3.765,3.765,0,0,0-6.589-2.491,3.762,3.762,0,0,0-4.933-.629A2.6,2.6,0,0,0,28.714.7v9.414l.471-.023a1.418,1.418,0,0,0,1.388-1.388l.025-.472V4.94l.023-.471a2.064,2.064,0,0,1,.23-.946,1.883,1.883,0,0,1,3.259,0ZM1.883,10.094l.471.023H9.414l-.023-.47A1.457,1.457,0,0,0,8,8.257l-.471-.023H3.3L8.943,2.585,8.92,2.116A1.424,1.424,0,0,0,7.532.726L7.061.7,0,.7l.023.471A1.46,1.46,0,0,0,1.411,2.562l.472.023H6.118L.471,8.235l.023.471a1.437,1.437,0,0,0,1.388,1.388ZM26.866,2.08A4.71,4.71,0,1,1,23.533.7,4.707,4.707,0,0,1,26.866,2.08ZM25.534,3.414a2.825,2.825,0,1,1-3.995,0,2.826,2.826,0,0,1,3.995,0ZM13.654.7a4.711,4.711,0,1,1-.006,0h.006Zm1.994,2.711a2.825,2.825,0,1,1-3.995,0,2.826,2.826,0,0,1,3.995,0Z" transform="translate(0 -0.702)"/></svg>